<mxfile host="app.diagrams.net" modified="2020-10-22T02:51:14.517Z" agent="5.0 (Macintosh; Intel Mac OS X 10_15_7) AppleWebKit/537.36 (KHTML, like Gecko) Chrome/86.0.4240.80 Safari/537.36" etag="aRRjttDLHVMyc0VC7RHk" version="13.8.1" type="github">
  <diagram name="Page-1" id="e7e014a7-5840-1c2e-5031-d8a46d1fe8dd">
    <mxGraphModel dx="1351" dy="1482" grid="1" gridSize="10" guides="1" tooltips="1" connect="1" arrows="1" fold="1" page="1" pageScale="1" pageWidth="1169" pageHeight="826" background="#ffffff" math="0" shadow="0">
      <root>
        <mxCell id="0" />
        <mxCell id="1" parent="0" />
        <mxCell id="AoGEXer9o891e-ldqEI5-41" value="任何人" style="shape=umlActor;verticalLabelPosition=bottom;verticalAlign=top;html=1;" vertex="1" parent="1">
          <mxGeometry x="100" y="130" width="30" height="60" as="geometry" />
        </mxCell>
        <mxCell id="AoGEXer9o891e-ldqEI5-42" value="买家" style="shape=umlActor;verticalLabelPosition=bottom;verticalAlign=top;html=1;" vertex="1" parent="1">
          <mxGeometry x="100" y="-50" width="30" height="60" as="geometry" />
        </mxCell>
        <mxCell id="AoGEXer9o891e-ldqEI5-43" value="卖家" style="shape=umlActor;verticalLabelPosition=bottom;verticalAlign=top;html=1;" vertex="1" parent="1">
          <mxGeometry x="100" y="360" width="30" height="60" as="geometry" />
        </mxCell>
        <mxCell id="AoGEXer9o891e-ldqEI5-44" value="" style="endArrow=block;html=1;endFill=0;" edge="1" parent="1">
          <mxGeometry width="50" height="50" relative="1" as="geometry">
            <mxPoint x="114" y="120" as="sourcePoint" />
            <mxPoint x="114" y="40" as="targetPoint" />
          </mxGeometry>
        </mxCell>
        <mxCell id="AoGEXer9o891e-ldqEI5-45" value="入驻网站" style="ellipse;whiteSpace=wrap;html=1;" vertex="1" parent="1">
          <mxGeometry x="240" y="320" width="140" height="70" as="geometry" />
        </mxCell>
        <mxCell id="AoGEXer9o891e-ldqEI5-46" value="开店售货" style="ellipse;whiteSpace=wrap;html=1;" vertex="1" parent="1">
          <mxGeometry x="240" y="460" width="140" height="70" as="geometry" />
        </mxCell>
        <mxCell id="AoGEXer9o891e-ldqEI5-47" value="推广引流" style="ellipse;whiteSpace=wrap;html=1;" vertex="1" parent="1">
          <mxGeometry x="240" y="560" width="140" height="70" as="geometry" />
        </mxCell>
        <mxCell id="AoGEXer9o891e-ldqEI5-48" value="供应商" style="shape=umlActor;verticalLabelPosition=bottom;verticalAlign=top;html=1;" vertex="1" parent="1">
          <mxGeometry x="100" y="-250" width="30" height="60" as="geometry" />
        </mxCell>
        <mxCell id="AoGEXer9o891e-ldqEI5-49" value="浏览" style="ellipse;whiteSpace=wrap;html=1;" vertex="1" parent="1">
          <mxGeometry x="240" y="125" width="140" height="70" as="geometry" />
        </mxCell>
        <mxCell id="AoGEXer9o891e-ldqEI5-50" value="搜索" style="ellipse;whiteSpace=wrap;html=1;" vertex="1" parent="1">
          <mxGeometry x="240" y="240" width="140" height="70" as="geometry" />
        </mxCell>
        <mxCell id="AoGEXer9o891e-ldqEI5-51" value="降价促销、发放优惠券、打折券" style="ellipse;whiteSpace=wrap;html=1;" vertex="1" parent="1">
          <mxGeometry x="650" y="460" width="140" height="70" as="geometry" />
        </mxCell>
        <mxCell id="AoGEXer9o891e-ldqEI5-53" value="购买商品" style="ellipse;whiteSpace=wrap;html=1;" vertex="1" parent="1">
          <mxGeometry x="240" y="-170" width="140" height="70" as="geometry" />
        </mxCell>
        <mxCell id="AoGEXer9o891e-ldqEI5-54" value="商品放入购物车" style="ellipse;whiteSpace=wrap;html=1;" vertex="1" parent="1">
          <mxGeometry x="640" y="-310" width="140" height="70" as="geometry" />
        </mxCell>
        <mxCell id="AoGEXer9o891e-ldqEI5-55" value="浏览并管理购物车" style="ellipse;whiteSpace=wrap;html=1;" vertex="1" parent="1">
          <mxGeometry x="640" y="-220" width="140" height="70" as="geometry" />
        </mxCell>
        <mxCell id="AoGEXer9o891e-ldqEI5-56" value="店家改价" style="ellipse;whiteSpace=wrap;html=1;" vertex="1" parent="1">
          <mxGeometry x="640" y="-130" width="140" height="70" as="geometry" />
        </mxCell>
        <mxCell id="AoGEXer9o891e-ldqEI5-57" value="发货" style="ellipse;whiteSpace=wrap;html=1;" vertex="1" parent="1">
          <mxGeometry x="250" y="-260" width="140" height="70" as="geometry" />
        </mxCell>
        <mxCell id="AoGEXer9o891e-ldqEI5-58" value="使用优惠券" style="ellipse;whiteSpace=wrap;html=1;" vertex="1" parent="1">
          <mxGeometry x="640" y="-35" width="140" height="70" as="geometry" />
        </mxCell>
        <mxCell id="AoGEXer9o891e-ldqEI5-59" value="确认订单" style="ellipse;whiteSpace=wrap;html=1;" vertex="1" parent="1">
          <mxGeometry x="640" y="55" width="140" height="70" as="geometry" />
        </mxCell>
        <mxCell id="AoGEXer9o891e-ldqEI5-60" value="确认配送地址" style="ellipse;whiteSpace=wrap;html=1;" vertex="1" parent="1">
          <mxGeometry x="640" y="230" width="140" height="70" as="geometry" />
        </mxCell>
        <mxCell id="AoGEXer9o891e-ldqEI5-61" value="选择支付方式并支付" style="ellipse;whiteSpace=wrap;html=1;" vertex="1" parent="1">
          <mxGeometry x="640" y="140" width="140" height="70" as="geometry" />
        </mxCell>
        <mxCell id="AoGEXer9o891e-ldqEI5-62" value="确认收货" style="ellipse;whiteSpace=wrap;html=1;" vertex="1" parent="1">
          <mxGeometry x="240" y="35" width="140" height="70" as="geometry" />
        </mxCell>
        <mxCell id="AoGEXer9o891e-ldqEI5-63" value="申请退货" style="ellipse;whiteSpace=wrap;html=1;" vertex="1" parent="1">
          <mxGeometry x="240" y="-80" width="140" height="70" as="geometry" />
        </mxCell>
        <mxCell id="AoGEXer9o891e-ldqEI5-64" value="管理店铺" style="ellipse;whiteSpace=wrap;html=1;" vertex="1" parent="1">
          <mxGeometry x="240" y="660" width="140" height="70" as="geometry" />
        </mxCell>
        <mxCell id="AoGEXer9o891e-ldqEI5-65" value="管理商品类别" style="ellipse;whiteSpace=wrap;html=1;" vertex="1" parent="1">
          <mxGeometry x="430" y="600" width="140" height="70" as="geometry" />
        </mxCell>
        <mxCell id="AoGEXer9o891e-ldqEI5-66" value="管理商品" style="ellipse;whiteSpace=wrap;html=1;" vertex="1" parent="1">
          <mxGeometry x="430" y="690" width="140" height="70" as="geometry" />
        </mxCell>
        <mxCell id="AoGEXer9o891e-ldqEI5-67" value="管理订单" style="ellipse;whiteSpace=wrap;html=1;" vertex="1" parent="1">
          <mxGeometry x="430" y="790" width="140" height="70" as="geometry" />
        </mxCell>
        <mxCell id="AoGEXer9o891e-ldqEI5-68" value="管理客户" style="ellipse;whiteSpace=wrap;html=1;" vertex="1" parent="1">
          <mxGeometry x="430" y="890" width="140" height="70" as="geometry" />
        </mxCell>
        <mxCell id="AoGEXer9o891e-ldqEI5-69" value="添加商品" style="ellipse;whiteSpace=wrap;html=1;" vertex="1" parent="1">
          <mxGeometry x="680" y="600" width="140" height="70" as="geometry" />
        </mxCell>
        <mxCell id="AoGEXer9o891e-ldqEI5-70" value="添加图片" style="ellipse;whiteSpace=wrap;html=1;" vertex="1" parent="1">
          <mxGeometry x="870" y="680" width="140" height="70" as="geometry" />
        </mxCell>
        <mxCell id="AoGEXer9o891e-ldqEI5-71" value="更改类别" style="ellipse;whiteSpace=wrap;html=1;" vertex="1" parent="1">
          <mxGeometry x="760" y="770" width="140" height="70" as="geometry" />
        </mxCell>
        <mxCell id="AoGEXer9o891e-ldqEI5-72" value="更改属性" style="ellipse;whiteSpace=wrap;html=1;" vertex="1" parent="1">
          <mxGeometry x="660" y="870" width="140" height="70" as="geometry" />
        </mxCell>
        <mxCell id="AoGEXer9o891e-ldqEI5-73" value="确认订单" style="ellipse;whiteSpace=wrap;html=1;" vertex="1" parent="1">
          <mxGeometry x="650" y="960" width="140" height="70" as="geometry" />
        </mxCell>
        <mxCell id="AoGEXer9o891e-ldqEI5-75" value="发货" style="ellipse;whiteSpace=wrap;html=1;" vertex="1" parent="1">
          <mxGeometry x="515" y="1020" width="140" height="70" as="geometry" />
        </mxCell>
        <mxCell id="AoGEXer9o891e-ldqEI5-76" value="搜索" style="ellipse;whiteSpace=wrap;html=1;" vertex="1" parent="1">
          <mxGeometry x="230" y="930" width="140" height="70" as="geometry" />
        </mxCell>
        <mxCell id="AoGEXer9o891e-ldqEI5-77" value="标注" style="ellipse;whiteSpace=wrap;html=1;" vertex="1" parent="1">
          <mxGeometry x="330" y="1010" width="140" height="70" as="geometry" />
        </mxCell>
        <mxCell id="AoGEXer9o891e-ldqEI5-78" value="发送站内信" style="ellipse;whiteSpace=wrap;html=1;" vertex="1" parent="1">
          <mxGeometry x="420" y="1120" width="140" height="70" as="geometry" />
        </mxCell>
        <mxCell id="AoGEXer9o891e-ldqEI5-81" value="" style="endArrow=none;html=1;exitX=0.5;exitY=0.5;exitDx=0;exitDy=0;exitPerimeter=0;entryX=0;entryY=0.5;entryDx=0;entryDy=0;" edge="1" parent="1" target="AoGEXer9o891e-ldqEI5-57">
          <mxGeometry width="50" height="50" relative="1" as="geometry">
            <mxPoint x="129.99999999999977" y="-230.51" as="sourcePoint" />
            <mxPoint x="274.99489930374875" y="-240.00229421857193" as="targetPoint" />
          </mxGeometry>
        </mxCell>
        <mxCell id="AoGEXer9o891e-ldqEI5-88" value="" style="shape=partialRectangle;whiteSpace=wrap;html=1;bottom=1;right=1;left=1;top=0;fillColor=none;routingCenterX=-0.5;rotation=90;" vertex="1" parent="1">
          <mxGeometry x="-18.75" y="11.25" width="407.5" height="110" as="geometry" />
        </mxCell>
        <mxCell id="AoGEXer9o891e-ldqEI5-90" value="" style="shape=partialRectangle;whiteSpace=wrap;html=1;left=0;right=0;fillColor=none;" vertex="1" parent="1">
          <mxGeometry x="130" y="-48.75" width="110" height="118.75" as="geometry" />
        </mxCell>
        <mxCell id="AoGEXer9o891e-ldqEI5-93" value="" style="endArrow=none;html=1;exitX=0.75;exitY=1;exitDx=0;exitDy=0;entryX=0.75;entryY=0;entryDx=0;entryDy=0;" edge="1" parent="1" source="AoGEXer9o891e-ldqEI5-88" target="AoGEXer9o891e-ldqEI5-88">
          <mxGeometry width="50" height="50" relative="1" as="geometry">
            <mxPoint x="139.99999999999977" y="-220.51" as="sourcePoint" />
            <mxPoint x="259.9999999999975" y="-215" as="targetPoint" />
          </mxGeometry>
        </mxCell>
        <mxCell id="AoGEXer9o891e-ldqEI5-94" value="" style="shape=partialRectangle;whiteSpace=wrap;html=1;bottom=1;right=1;left=1;top=0;fillColor=none;routingCenterX=-0.5;rotation=90;" vertex="1" parent="1">
          <mxGeometry x="10.5" y="472.5" width="348.5" height="109.5" as="geometry" />
        </mxCell>
        <mxCell id="AoGEXer9o891e-ldqEI5-95" value="" style="shape=partialRectangle;whiteSpace=wrap;html=1;left=0;right=0;fillColor=none;" vertex="1" parent="1">
          <mxGeometry x="130" y="490" width="110" height="110" as="geometry" />
        </mxCell>
        <mxCell id="AoGEXer9o891e-ldqEI5-96" value="&amp;lt;&amp;lt;include&amp;gt;&amp;gt;" style="endArrow=classic;html=1;dashed=1;exitX=0.983;exitY=0.339;exitDx=0;exitDy=0;exitPerimeter=0;entryX=0;entryY=0.5;entryDx=0;entryDy=0;" edge="1" parent="1" source="AoGEXer9o891e-ldqEI5-53" target="AoGEXer9o891e-ldqEI5-54">
          <mxGeometry width="50" height="50" relative="1" as="geometry">
            <mxPoint x="430" y="-250" as="sourcePoint" />
            <mxPoint x="480" y="-300" as="targetPoint" />
          </mxGeometry>
        </mxCell>
        <mxCell id="AoGEXer9o891e-ldqEI5-97" value="&amp;lt;&amp;lt;include&amp;gt;&amp;gt;" style="endArrow=classic;html=1;dashed=1;exitX=1;exitY=0.5;exitDx=0;exitDy=0;entryX=0;entryY=0.5;entryDx=0;entryDy=0;" edge="1" parent="1" source="AoGEXer9o891e-ldqEI5-53" target="AoGEXer9o891e-ldqEI5-55">
          <mxGeometry width="50" height="50" relative="1" as="geometry">
            <mxPoint x="387.6199999999999" y="-136.26999999999998" as="sourcePoint" />
            <mxPoint x="649.9999999999998" y="-265" as="targetPoint" />
          </mxGeometry>
        </mxCell>
        <mxCell id="AoGEXer9o891e-ldqEI5-98" value="&amp;lt;&amp;lt;include&amp;gt;&amp;gt;" style="endArrow=classic;html=1;dashed=1;entryX=0;entryY=0.5;entryDx=0;entryDy=0;" edge="1" parent="1" target="AoGEXer9o891e-ldqEI5-56">
          <mxGeometry width="50" height="50" relative="1" as="geometry">
            <mxPoint x="380" y="-140" as="sourcePoint" />
            <mxPoint x="659.9999999999998" y="-255" as="targetPoint" />
          </mxGeometry>
        </mxCell>
        <mxCell id="AoGEXer9o891e-ldqEI5-99" value="&amp;lt;&amp;lt;include&amp;gt;&amp;gt;" style="endArrow=classic;html=1;dashed=1;entryX=0;entryY=0.5;entryDx=0;entryDy=0;" edge="1" parent="1" target="AoGEXer9o891e-ldqEI5-58">
          <mxGeometry width="50" height="50" relative="1" as="geometry">
            <mxPoint x="380" y="-130" as="sourcePoint" />
            <mxPoint x="669.9999999999998" y="-245" as="targetPoint" />
          </mxGeometry>
        </mxCell>
        <mxCell id="AoGEXer9o891e-ldqEI5-100" value="&amp;lt;&amp;lt;include&amp;gt;&amp;gt;" style="endArrow=classic;html=1;dashed=1;entryX=0;entryY=0.5;entryDx=0;entryDy=0;exitX=0.993;exitY=0.665;exitDx=0;exitDy=0;exitPerimeter=0;" edge="1" parent="1" source="AoGEXer9o891e-ldqEI5-53" target="AoGEXer9o891e-ldqEI5-59">
          <mxGeometry width="50" height="50" relative="1" as="geometry">
            <mxPoint x="389.9999999999998" y="-120" as="sourcePoint" />
            <mxPoint x="649.9999999999998" y="10.000000000000227" as="targetPoint" />
          </mxGeometry>
        </mxCell>
        <mxCell id="AoGEXer9o891e-ldqEI5-101" value="&amp;lt;&amp;lt;include&amp;gt;&amp;gt;" style="endArrow=classic;html=1;dashed=1;entryX=0;entryY=0.5;entryDx=0;entryDy=0;exitX=1;exitY=0.714;exitDx=0;exitDy=0;exitPerimeter=0;" edge="1" parent="1" source="AoGEXer9o891e-ldqEI5-53" target="AoGEXer9o891e-ldqEI5-61">
          <mxGeometry width="50" height="50" relative="1" as="geometry">
            <mxPoint x="399.9999999999998" y="-110" as="sourcePoint" />
            <mxPoint x="659.9999999999998" y="20.000000000000227" as="targetPoint" />
          </mxGeometry>
        </mxCell>
        <mxCell id="AoGEXer9o891e-ldqEI5-102" value="&amp;lt;&amp;lt;include&amp;gt;&amp;gt;" style="endArrow=classic;html=1;dashed=1;entryX=0;entryY=0.5;entryDx=0;entryDy=0;exitX=0.952;exitY=0.788;exitDx=0;exitDy=0;exitPerimeter=0;" edge="1" parent="1" source="AoGEXer9o891e-ldqEI5-53" target="AoGEXer9o891e-ldqEI5-60">
          <mxGeometry width="50" height="50" relative="1" as="geometry">
            <mxPoint x="409.9999999999998" y="-100" as="sourcePoint" />
            <mxPoint x="669.9999999999998" y="30.000000000000227" as="targetPoint" />
          </mxGeometry>
        </mxCell>
        <mxCell id="AoGEXer9o891e-ldqEI5-103" value="&amp;lt;&amp;lt;include&amp;gt;&amp;gt;" style="endArrow=classic;html=1;dashed=1;entryX=0;entryY=0.5;entryDx=0;entryDy=0;exitX=1;exitY=0.5;exitDx=0;exitDy=0;" edge="1" parent="1" source="AoGEXer9o891e-ldqEI5-64" target="AoGEXer9o891e-ldqEI5-65">
          <mxGeometry width="50" height="50" relative="1" as="geometry">
            <mxPoint x="388.28" y="280.1600000000001" as="sourcePoint" />
            <mxPoint x="654.9999999999998" y="660" as="targetPoint" />
          </mxGeometry>
        </mxCell>
        <mxCell id="AoGEXer9o891e-ldqEI5-104" value="&amp;lt;&amp;lt;include&amp;gt;&amp;gt;" style="endArrow=classic;html=1;dashed=1;entryX=0;entryY=0.5;entryDx=0;entryDy=0;exitX=0.993;exitY=0.645;exitDx=0;exitDy=0;exitPerimeter=0;" edge="1" parent="1" source="AoGEXer9o891e-ldqEI5-64" target="AoGEXer9o891e-ldqEI5-66">
          <mxGeometry width="50" height="50" relative="1" as="geometry">
            <mxPoint x="380" y="690" as="sourcePoint" />
            <mxPoint x="439.9999999999998" y="645" as="targetPoint" />
          </mxGeometry>
        </mxCell>
        <mxCell id="AoGEXer9o891e-ldqEI5-105" value="&amp;lt;&amp;lt;include&amp;gt;&amp;gt;" style="endArrow=classic;html=1;dashed=1;entryX=0;entryY=0.5;entryDx=0;entryDy=0;exitX=0.962;exitY=0.727;exitDx=0;exitDy=0;exitPerimeter=0;" edge="1" parent="1" source="AoGEXer9o891e-ldqEI5-64" target="AoGEXer9o891e-ldqEI5-67">
          <mxGeometry width="50" height="50" relative="1" as="geometry">
            <mxPoint x="389.02" y="715.1500000000001" as="sourcePoint" />
            <mxPoint x="439.9999999999998" y="735" as="targetPoint" />
          </mxGeometry>
        </mxCell>
        <mxCell id="AoGEXer9o891e-ldqEI5-106" value="&amp;lt;&amp;lt;include&amp;gt;&amp;gt;" style="endArrow=classic;html=1;dashed=1;entryX=0;entryY=0.5;entryDx=0;entryDy=0;exitX=1;exitY=1;exitDx=0;exitDy=0;" edge="1" parent="1" source="AoGEXer9o891e-ldqEI5-64" target="AoGEXer9o891e-ldqEI5-68">
          <mxGeometry width="50" height="50" relative="1" as="geometry">
            <mxPoint x="399.02" y="725.1500000000001" as="sourcePoint" />
            <mxPoint x="449.9999999999998" y="745" as="targetPoint" />
          </mxGeometry>
        </mxCell>
      </root>
    </mxGraphModel>
  </diagram>
</mxfile>
